<?xml version="1.0" standalone="no"?><!DOCTYPE svg PUBLIC "-//W3C//DTD SVG 1.1//EN" "http://www.w3.org/Graphics/SVG/1.1/DTD/svg11.dtd"><svg t="1674634714437" class="icon" viewBox="0 0 1024 1024" version="1.1" xmlns="http://www.w3.org/2000/svg" p-id="1351" xmlns:xlink="http://www.w3.org/1999/xlink" width="200" height="200"><path d="M808.5 917.4H218c-43 0-78-35-78-78V197c0-38.8 28.5-71.1 65.8-77 2.4-0.9 5.1-1.2 7.7-0.8 1.5-0.2 3-0.2 4.5-0.2h584.5c46.3 0 84 37.7 84 84v9c0 46.3-37.7 84-84 84H221.3c-7.8 0-14.5-5.3-16.5-12.8-1.9-7.5 1.5-15.4 8.3-19.1 24.7-13.5 36.2-32.3 36.2-59.2 0-15.5-4.2-37.3-39.2-51.2-20.5 3.7-36.1 21.7-36.1 43.3v642.4c0 24.3 19.7 44 44 44h590.5c24.3 0 44-19.7 44-44V324.9c0-9.4 7.6-17 17-17s17 7.6 17 17v514.5c0 43-35 78-78 78zM266.2 262h536.3c27.6 0 50-22.4 50-50v-9c0-27.6-22.4-50-50-50H266.4c10.1 12.9 16.9 29.8 16.9 51.9 0.1 21.8-5.8 41-17.1 57.1z" fill="#4c4c4c" p-id="1352"></path><path d="M760.6 399H263c-9.4 0-17-7.6-17-17s7.6-17 17-17h497.6c9.4 0 17 7.6 17 17s-7.6 17-17 17zM640 495H259c-9.4 0-17-7.6-17-17s7.6-17 17-17h381c9.4 0 17 7.6 17 17s-7.6 17-17 17zM559 605H259c-9.4 0-17-7.6-17-17s7.6-17 17-17h300c9.4 0 17 7.6 17 17s-7.6 17-17 17zM513 864c-4.3 0-8.5-1.6-11.7-4.7-4.2-4-6.1-9.9-5-15.7l20.1-100c0.6-3 2-5.8 4-8l262-290.9c6.3-7 17-7.5 24-1.3 7 6.3 7.5 17 1.3 24L548.8 754.8l-13.8 69 61-15.5 186.3-212.7c6.2-7.1 16.9-7.8 24-1.6 7.1 6.2 7.8 16.9 1.6 24L618.1 834.7c-2.3 2.6-5.3 4.4-8.6 5.3l-92.3 23.5c-1.4 0.3-2.8 0.5-4.2 0.5z" fill="#4c4c4c" p-id="1353"></path></svg>