<?xml version="1.0" standalone="no"?><!DOCTYPE svg PUBLIC "-//W3C//DTD SVG 1.1//EN" "http://www.w3.org/Graphics/SVG/1.1/DTD/svg11.dtd"><svg t="1674634701019" class="icon" viewBox="0 0 1024 1024" version="1.1" xmlns="http://www.w3.org/2000/svg" p-id="1063" xmlns:xlink="http://www.w3.org/1999/xlink" width="200" height="200"><path d="M495 760.6c-87.4 0-176-24.9-263.3-74.1-5.3-3-8.7-8.7-8.7-14.8V430.5c0-9.4 7.6-17 17-17s17 7.6 17 17v231.2c79.4 43.1 159.4 65 238 65s158.8-21.9 238.3-65V439.4c0-9.4 7.6-17 17-17s17 7.6 17 17v232.3c0 6.1-3.3 11.8-8.7 14.8-87.5 49.2-176.2 74.1-263.6 74.1z" fill="#4c4c4c" p-id="1064"></path><path d="M495 562c-2.4 0-4.8-0.5-7-1.5L104.8 386.3c-5.8-2.6-9.7-8.3-9.9-14.7-0.3-6.4 3-12.4 8.6-15.5l383.1-217.4c5.1-2.9 11.3-3 16.4-0.2l404.6 217.3c5.7 3.1 9.2 9.2 8.9 15.7-0.3 6.5-4.3 12.3-10.3 14.9L743 456.7c-8.6 3.7-18.6-0.3-22.3-8.9-3.7-8.6 0.3-18.6 8.9-22.3l130.9-56.4-365.3-196.2-346 196.2 346 157.3 108.1-46.6c8.6-3.7 18.6 0.3 22.3 8.9 3.7 8.6-0.3 18.6-8.9 22.3l-115 49.5c-2.1 1-4.4 1.5-6.7 1.5z" fill="#4c4c4c" p-id="1065"></path><path d="M678 637.3c-9.4 0-17-7.6-17-17V474.4L500.8 362.3c-7.7-5.4-9.6-16-4.2-23.7 5.4-7.7 16-9.6 23.7-4.2l167.5 117.2c4.5 3.2 7.3 8.4 7.3 13.9v154.7c-0.1 9.5-7.7 17.1-17.1 17.1zM195.2 837.4c-0.9 0-1.9-0.1-2.9-0.2-9.3-1.6-15.5-10.3-13.9-19.6l12.6-74.4c1.6-9.3 10.3-15.5 19.6-13.9 9.3 1.6 15.5 10.3 13.9 19.6l-12.6 74.4c-1.4 8.3-8.6 14.1-16.7 14.1zM265.2 837.4c-0.9 0-1.9-0.1-2.9-0.2-9.3-1.6-15.5-10.3-13.9-19.6l12.6-74.4c1.6-9.3 10.3-15.5 19.6-13.9 9.3 1.6 15.5 10.3 13.9 19.6l-12.6 74.4c-1.4 8.3-8.6 14.1-16.7 14.1zM345.2 837.4c-0.7 0-1.5 0-2.2-0.1-9.3-1.2-15.9-9.7-14.7-19l6.3-48.9c1.2-9.3 9.7-15.9 19-14.7 9.3 1.2 15.9 9.7 14.7 19l-6.3 48.9c-1.1 8.6-8.4 14.8-16.8 14.8zM717.5 828c-31.2 0-56.5-22-56.5-49.1s25.3-49.1 56.5-49.1 56.5 22 56.5 49.1-25.3 49.1-56.5 49.1z m0-64.2c-12 0-22.5 7.1-22.5 15.1 0 8.1 10.5 15.1 22.5 15.1s22.5-7.1 22.5-15.1c0-8.1-10.5-15.1-22.5-15.1z" fill="#4c4c4c" p-id="1066"></path><path d="M933.7 887.7H90.4c-5.2 0-10.1-2.4-13.3-6.4-3.2-4-4.4-9.3-3.3-14.4l39.5-172.3c1.8-7.7 8.6-13.2 16.6-13.2h76.7c9.4 0 17 7.6 17 17s-7.6 17-17 17h-63.2l-31.7 138.3h792.9l-77.9-138.3h-42c-9.4 0-17-7.6-17-17s7.6-17 17-17h51.9c6.1 0 11.8 3.3 14.8 8.7l97.1 172.3c3 5.3 2.9 11.7-0.1 16.9-3.1 5.2-8.6 8.4-14.7 8.4z" fill="#4c4c4c" p-id="1067"></path></svg>