<?xml version="1.0" standalone="no"?><!DOCTYPE svg PUBLIC "-//W3C//DTD SVG 1.1//EN" "http://www.w3.org/Graphics/SVG/1.1/DTD/svg11.dtd"><svg t="1674634710406" class="icon" viewBox="0 0 1024 1024" version="1.1" xmlns="http://www.w3.org/2000/svg" p-id="1207" xmlns:xlink="http://www.w3.org/1999/xlink" width="200" height="200"><path d="M867 557H158c-37.5 0-68-30.5-68-68V242c0-37.5 30.5-68 68-68h709c37.5 0 68 30.5 68 68v247c0 37.5-30.5 68-68 68zM158 208c-18.7 0-34 15.3-34 34v247c0 18.7 15.3 34 34 34h709c18.7 0 34-15.3 34-34V242c0-18.7-15.3-34-34-34H158z" fill="#4c4c4c" p-id="1208"></path><path d="M428 639c-3.8 0-7.6-1.3-10.8-3.9L180.7 440c-7.2-6-8.3-16.7-2.3-23.9 6-7.2 16.7-8.3 23.9-2.3l236.5 195.1c7.2 6 8.3 16.7 2.3 23.9-3.3 4.1-8.2 6.2-13.1 6.2zM581 637c-4.9 0-9.8-2.1-13.2-6.3-5.9-7.3-4.9-18 2.4-23.9l239.2-195.2c7.3-5.9 18-4.9 23.9 2.4 5.9 7.3 4.9 18-2.4 23.9L591.8 633.2c-3.2 2.5-7 3.8-10.8 3.8zM644 814H382c-28.1 0-51-22.9-51-51v-30c0-28.1 22.9-51 51-51h262c28.1 0 51 22.9 51 51v30c0 28.1-22.9 51-51 51z m-262-98c-9.4 0-17 7.6-17 17v30c0 9.4 7.6 17 17 17h262c9.4 0 17-7.6 17-17v-30c0-9.4-7.6-17-17-17H382z" fill="#4c4c4c" p-id="1209"></path><path d="M484.6 690.3l-32.9-8.6c6.9-26.3 30.7-44.7 57.9-44.7 27.1 0 50.8 18.2 57.8 44.4l-32.8 8.8c-3-11.3-13.3-19.1-25-19.1-11.7-0.1-22 7.8-25 19.2zM407.7 799.5h34v36.4h-34zM597.7 799.5h34v36.4h-34zM475.4 620.6c-5.9 0-11.7-3.1-14.8-8.7l-14.4-25.6c-4.6-8.2-1.7-18.5 6.5-23.2 8.2-4.6 18.5-1.7 23.1 6.5l14.4 25.6c4.6 8.2 1.7 18.5-6.5 23.2-2.6 1.5-5.5 2.2-8.3 2.2zM522.4 612.5c-7.3 0-14-4.7-16.3-12L489.7 547c-2.7-9 2.3-18.5 11.3-21.2 9-2.7 18.5 2.3 21.2 11.3l16.4 53.5c2.7 9-2.3 18.5-11.3 21.2-1.6 0.5-3.3 0.7-4.9 0.7z" fill="#4c4c4c" p-id="1210"></path><path d="M797 862.8H253.7c-9.4 0-17-7.6-17-17s7.6-17 17-17H797c9.4 0 17 7.6 17 17s-7.6 17-17 17zM333 384h-77c-23.7 0-43-19.3-43-43v-46c0-23.7 19.3-43 43-43h77c23.7 0 43 19.3 43 43v46c0 23.7-19.3 43-43 43z m-77-98c-5 0-9 4-9 9v46c0 5 4 9 9 9h77c5 0 9-4 9-9v-46c0-5-4-9-9-9h-77zM547 384h-77c-23.7 0-43-19.3-43-43v-46c0-23.7 19.3-43 43-43h77c23.7 0 43 19.3 43 43v46c0 23.7-19.3 43-43 43z m-77-98c-5 0-9 4-9 9v46c0 5 4 9 9 9h77c5 0 9-4 9-9v-46c0-5-4-9-9-9h-77zM767 384h-77c-23.7 0-43-19.3-43-43v-46c0-23.7 19.3-43 43-43h77c23.7 0 43 19.3 43 43v46c0 23.7-19.3 43-43 43z m-77-98c-5 0-9 4-9 9v46c0 5 4 9 9 9h77c5 0 9-4 9-9v-46c0-5-4-9-9-9h-77z" fill="#4c4c4c" p-id="1211"></path></svg>