<?xml version="1.0" standalone="no"?><!DOCTYPE svg PUBLIC "-//W3C//DTD SVG 1.1//EN" "http://www.w3.org/Graphics/SVG/1.1/DTD/svg11.dtd"><svg t="1678353766279" class="icon" viewBox="0 0 1024 1024" version="1.1" xmlns="http://www.w3.org/2000/svg" p-id="18941" xmlns:xlink="http://www.w3.org/1999/xlink" width="200" height="200"><path d="M672 64H416a32 32 0 0 0-32 32 96.11 96.11 0 0 1-96 96 32 32 0 0 0-32 32v128a32 32 0 0 0 32 32h96v544a32 32 0 0 0 32 32h256a32 32 0 0 0 32-32V96a32 32 0 0 0-32-32z m-227.21 64H640v96.08A159.19 159.19 0 0 0 544 192H415.91a159.33 159.33 0 0 0 28.88-64zM448 384h64v512h-64z m192 512h-64V368a48.05 48.05 0 0 0-48-48H320v-64h224a96.11 96.11 0 0 1 96 96z" fill="#5C5C66" p-id="18942"></path></svg>