<?xml version="1.0" standalone="no"?><!DOCTYPE svg PUBLIC "-//W3C//DTD SVG 1.1//EN" "http://www.w3.org/Graphics/SVG/1.1/DTD/svg11.dtd"><svg t="1678353720112" class="icon" viewBox="0 0 1024 1024" version="1.1" xmlns="http://www.w3.org/2000/svg" p-id="18521" xmlns:xlink="http://www.w3.org/1999/xlink" width="200" height="200"><path d="M896 352v-64A224 224 0 0 0 672 64H160a32 32 0 0 0-32 32v256a32 32 0 0 0 32 32h314.43L158.81 752.21a128.1 128.1 0 0 0-30.81 83.3V928a32 32 0 0 0 32 32h704a32 32 0 0 0 32-32V672a32 32 0 0 0-32-32H674.58L889 372a32 32 0 0 0 7-20zM672 128a160.15 160.15 0 0 1 140.5 83.5A159 159 0 0 0 736 192H192v-64zM192 896v-60.49a64 64 0 0 1 15.41-41.65L558.72 384h75.7L295.7 779.17A32 32 0 0 0 320 832h512v64z m640-128H389.58l55-64.18a32 32 0 0 0 3.42 0.18h384zM499.29 640l229-267.17A32 32 0 0 0 704 320H192v-64h544a96.13 96.13 0 0 1 95.42 85.5L592.62 640z" fill="#5C5C66" p-id="18522"></path></svg>