<?xml version="1.0" standalone="no"?><!DOCTYPE svg PUBLIC "-//W3C//DTD SVG 1.1//EN" "http://www.w3.org/Graphics/SVG/1.1/DTD/svg11.dtd"><svg t="1678353725296" class="icon" viewBox="0 0 1024 1024" version="1.1" xmlns="http://www.w3.org/2000/svg" p-id="18801" xmlns:xlink="http://www.w3.org/1999/xlink" width="200" height="200"><path d="M830.39 129.61A222.53 222.53 0 0 0 672 64H160a32 32 0 0 0-32 32v256a32 32 0 0 0 32 32h352a32.05 32.05 0 0 1 30 20.78l-84.38 84.38-0.09 0.09-0.13 0.12a32 32 0 0 0-6 36.94l28.6 57.24V608a32 32 0 0 1-32 32H160a32 32 0 0 0-32 32v256a32 32 0 0 0 32 32h448a288 288 0 0 0 288-288 32 32 0 0 0-7-20L781.61 517.79 883.2 441.6A32 32 0 0 0 896 416V288a222.53 222.53 0 0 0-65.61-158.39zM672 128c73.16 0 135 49.35 154 116.51A207.12 207.12 0 0 0 688 192H192v-64zM448 704a96.17 96.17 0 0 0 91.38-66.56l36 45.07A96.14 96.14 0 0 1 480 768H192v-64zM192 896v-64h288c88.22 0 160-71.78 160-160a32 32 0 0 0-7-20L522.88 514.37l75.75-75.74A32 32 0 0 0 608 416a95.56 95.56 0 0 0-5.49-32H672a32 32 0 0 1 28.92 18.31L588.8 486.4c-0.27 0.2-0.54 0.39-0.8 0.6a32 32 0 0 0-5 45l121 151.23V688c0 114.69-93.31 208-208 208z m495-14.41c0.43-0.42 0.87-0.83 1.29-1.26A270.19 270.19 0 0 0 768 688v-16a32 32 0 0 0-7-20L653.61 517.79 755.2 441.6A32 32 0 0 0 768 416a96.11 96.11 0 0 0-96-96H192v-64h496c79.4 0 144 64.6 144 144l-115.2 86.4a32 32 0 0 0-6.4 44.8c0.2 0.27 0.42 0.52 0.62 0.78L831.74 682.9c-4.38 90.98-63.31 167.89-144.74 198.69z" fill="#5C5C66" p-id="18802"></path></svg>