<?xml version="1.0" standalone="no"?><!DOCTYPE svg PUBLIC "-//W3C//DTD SVG 1.1//EN" "http://www.w3.org/Graphics/SVG/1.1/DTD/svg11.dtd"><svg t="1678353711268" class="icon" viewBox="0 0 1024 1024" version="1.1" xmlns="http://www.w3.org/2000/svg" p-id="18241" xmlns:xlink="http://www.w3.org/1999/xlink" width="200" height="200"><path d="M928 448h-96V96a32 32 0 0 0-32-32H590.14a127.36 127.36 0 0 0-99.95 48L156.05 529.71a128.46 128.46 0 0 0-28.05 80v127.63a31.92 31.92 0 0 0 11 22.79 32.09 32.09 0 0 0 9.53 5.75h0.22A31.89 31.89 0 0 0 160 768h352v160a32 32 0 0 0 32 32h256a32 32 0 0 0 32-32V768h96a32 32 0 0 0 32-32V480a32 32 0 0 0-32-32zM192 609.67a64.27 64.27 0 0 1 14-40L540.17 152a63.66 63.66 0 0 1 50-24H640v448h-64V256a32 32 0 0 0-57-20L192 644.78zM457 576l55-68.77V576z m119 320V768h64v128z m320-192h-64v-64h64z m0-128h-96a32 32 0 0 0-32 32v288h-64V736a32 32 0 0 0-32-32H226.58L512 347.23v57.54L365.41 588a32 32 0 0 0 25 52H672a32 32 0 0 0 32-32V128h64v352a32 32 0 0 0 32 32h96z" fill="#5C5C66" p-id="18242"></path></svg>