<?xml version="1.0" standalone="no"?><!DOCTYPE svg PUBLIC "-//W3C//DTD SVG 1.1//EN" "http://www.w3.org/Graphics/SVG/1.1/DTD/svg11.dtd"><svg t="1678353716320" class="icon" viewBox="0 0 1024 1024" version="1.1" xmlns="http://www.w3.org/2000/svg" p-id="18381" xmlns:xlink="http://www.w3.org/1999/xlink" width="200" height="200"><path d="M811.65 340.35A286.15 286.15 0 0 0 608 256h-68.77L575 104v-0.08l0.14-0.59A32 32 0 0 0 544 64H288a32 32 0 0 0-31.15 24.67l-128 544A32.27 32.27 0 0 0 128 640v32a288 288 0 0 0 288 288h192a288 288 0 0 0 288-288V544a286.15 286.15 0 0 0-84.35-203.65zM313.34 128h62.26L256.85 632.67A32.27 32.27 0 0 0 256 640v32a32 32 0 0 0 32 32h256a95.73 95.73 0 0 0 27.87-4.13A96.17 96.17 0 0 1 480 768H288a96.11 96.11 0 0 1-96-96v-28.29zM544 576a32 32 0 0 1 0 64h-95.17l15.09-64zM416 896a223.29 223.29 0 0 1-159.77-67.17A160.64 160.64 0 0 0 288 832h192c88.22 0 160-71.78 160-160v-64a95.73 95.73 0 0 0-4.13-27.87A96.17 96.17 0 0 1 704 672c0 123.51-100.49 224-224 224z m256-9.32q6-5.34 11.67-11A286.15 286.15 0 0 0 768 672c0-88.22-71.78-160-160-160H438.59a32 32 0 0 0-31.15 24.66L383.07 640h-62.2l120.47-512h62.26l-66 280.67A32 32 0 0 0 468.71 448H608c123.51 0 224 100.49 224 224 0 101.29-67.58 187.08-160 214.68z m139.65-418.33A286.15 286.15 0 0 0 608 384h-98.89l15.06-64H608c101.29 0 187.08 67.58 214.68 160q-5.34-5.93-11.03-11.65z" fill="#5C5C66" p-id="18382"></path></svg>