<?xml version="1.0" standalone="no"?><!DOCTYPE svg PUBLIC "-//W3C//DTD SVG 1.1//EN" "http://www.w3.org/Graphics/SVG/1.1/DTD/svg11.dtd"><svg fill="#e8ccb2" xmlns="http://www.w3.org/2000/svg" viewBox="26.997404098510742 26.982276916503906 46.04547882080078 46.04058837890625" x="0px" y="0px"><title>Creator Icon_35</title><path d="M28.73145,71.27979a6.52329,6.52329,0,0,0,4.79395,1.7334,19.26445,19.26445,0,0,0,7.649-1.98059,22.33075,22.33075,0,0,0,29.5545-29.19952c2.63623-5.48358,3.28912-10.36365.53967-13.11285-2.57483-2.57483-7.42059-2.27753-13.65155.81787A22.33647,22.33647,0,0,0,29.21875,58.3045C26.43909,64.20575,26.25848,68.80634,28.73145,71.27979Zm40.792-20.67969a19.29929,19.29929,0,0,1-24.7403,18.55505A68.08966,68.08966,0,0,0,58.42578,58.42627,70.64984,70.64984,0,0,0,68.79126,45.3938,19.24513,19.24513,0,0,1,69.52344,50.6001Zm-.376-19.75879c1.26581,1.26605,1.16241,4.02-.2226,7.62323a22.49828,22.49828,0,0,0-7.68573-7.26361C64.95,29.73364,67.87781,29.57208,69.14746,30.84131Zm-18.96191.4209A19.3436,19.3436,0,0,1,67.38831,41.80933,62.54568,62.54568,0,0,1,56.30469,56.30518a61.26517,61.26517,0,0,1-15.12842,11.392,19.3295,19.3295,0,0,1,9.00928-36.43494ZM37.77,69.15924c-3.246,1.12408-5.758,1.15814-6.91742-.00055-1.20258-1.20294-1.12958-3.82178.10114-7.21594A22.50613,22.50613,0,0,0,37.77,69.15924Z"></path></svg>